<?xml version="1.0" encoding="utf-8"?>
<!-- Generator: Adobe Illustrator 16.0.0, SVG Export Plug-In . SVG Version: 6.00 Build 0)  -->
<!DOCTYPE svg PUBLIC "-//W3C//DTD SVG 1.1//EN" "http://www.w3.org/Graphics/SVG/1.1/DTD/svg11.dtd">
<svg version="1.1" id="_x31_" xmlns="http://www.w3.org/2000/svg" xmlns:xlink="http://www.w3.org/1999/xlink" x="0px" y="0px"
	 width="50px" height="50px" viewBox="0 0 50 50" enable-background="new 0 0 50 50" xml:space="preserve">
<path opacity="0.3" fill="#FFFFFF" enable-background="new    " d="M25,0c13.807,0,25,11.193,25,25c0,13.807-11.193,25-25,25
	C11.193,50,0,38.807,0,25C0,11.193,11.193,0,25,0L25,0z M25,2.468C12.556,2.468,2.468,12.556,2.468,25
	c0,12.443,10.088,22.532,22.532,22.532c12.443,0,22.532-10.089,22.532-22.532C47.532,12.556,37.443,2.468,25,2.468z"/>
<path opacity="0.75" fill="#FFFFFF" d="M25,0c13.807,0,25,11.193,25,25h-2.468C47.532,12.556,37.443,2.468,25,2.468V0z"/>
</svg>
