<?xml version="1.0" encoding="utf-8"?>
<!-- Generator: Adobe Illustrator 15.1.0, SVG Export Plug-In . SVG Version: 6.00 Build 0)  -->
<!DOCTYPE svg PUBLIC "-//W3C//DTD SVG 1.1//EN" "http://www.w3.org/Graphics/SVG/1.1/DTD/svg11.dtd">
<svg version="1.1" id="Layer_1" xmlns="http://www.w3.org/2000/svg" xmlns:xlink="http://www.w3.org/1999/xlink" x="0px" y="0px"
	 width="89.782px" height="100px" viewBox="-32.891 -38 89.782 100" enable-background="new -32.891 -38 89.782 100"
	 xml:space="preserve">
<g>
	<path fill="#665CA7" d="M55.941,16.607c-2.812,22.646-19.378,24.078-22.43,25.055c-1.294,0.418-13.385,3.422-28.564,2.428
		c0,0-11.324,13.658-14.858,17.211c-0.547,0.557-1.196,0.777-1.632,0.676c-0.605-0.156-0.779-0.875-0.767-1.926l0.094-18.658
		C-34.334,35.254-33.042,12.171-32.79,0.08c0.248-12.087,2.522-21.996,9.267-28.654c12.121-10.979,37.088-9.339,37.088-9.339
		c21.091,0.09,31.192,6.447,33.54,8.572C54.88-22.685,58.838-6.743,55.941,16.607z"/>
	<path fill="#FFFFFF" d="M16.14,17.967c0,0,1.987,0.172,3.047-1.15l2.075-2.621c1.009-1.289,3.434-2.12,5.81-0.795
		c3.133,1.764,7.193,4.551,9.98,7.15c1.525,1.297,1.884,3.193,0.842,5.207l-0.013,0.037c-1.069,1.904-2.51,3.678-4.324,5.33
		l-0.045,0.041c-2.038,1.699-4.39,2.688-6.908,1.867l-0.045-0.063c-4.508-1.277-15.338-6.801-22.24-12.299
		C-6.972,11.758-14.99-2.933-17.216-10.805l-0.067-0.047c-0.82-2.524,0.182-4.876,1.878-6.91l0.03-0.039
		c1.658-1.815,3.438-3.251,5.332-4.329l0.039-0.006c2.01-1.048,3.913-0.69,5.205,0.842c1.705,1.76,4.91,5.995,7.154,9.98
		c1.322,2.37,0.496,4.795-0.806,5.8l-2.616,2.079C-2.389-2.371-2.215-0.39-2.215-0.39S1.656,14.27,16.14,17.967z"/>
	<path fill="#FFFFFF" d="M38.936,5.814c0.776-0.004,1.411-0.641,1.403-1.42c-0.069-9.275-2.909-16.717-8.446-22.118
		c-5.509-5.373-12.462-8.127-20.646-8.188h-0.009c-0.771,0-1.407,0.621-1.411,1.4c0,0.779,0.62,1.416,1.397,1.42
		c7.431,0.053,13.728,2.537,18.703,7.39c4.972,4.85,7.526,11.622,7.592,20.125c0,0.771,0.63,1.391,1.407,1.391H38.936z"/>
	<path fill="#FFFFFF" d="M31.519,2.92h-0.033c-0.781-0.019-1.396-0.659-1.371-1.438c0.103-4.823-1.273-8.719-4.206-11.931
		c-2.93-3.196-6.941-4.945-12.289-5.336c-0.773-0.061-1.361-0.734-1.305-1.507c0.062-0.779,0.736-1.361,1.508-1.308
		c6.012,0.444,10.775,2.545,14.164,6.251c3.406,3.708,5.069,8.385,4.939,13.888C32.914,2.312,32.279,2.92,31.519,2.92z"/>
	<path fill="#FFFFFF" d="M24.28,0.497c-0.74,0-1.367-0.588-1.403-1.343c-0.236-4.782-2.494-7.128-7.098-7.368
		c-0.767-0.051-1.367-0.71-1.322-1.489c0.039-0.773,0.702-1.373,1.477-1.329c6.081,0.326,9.445,3.8,9.755,10.049
		c0.044,0.779-0.554,1.44-1.331,1.479H24.28L24.28,0.497z"/>
</g>
</svg>
